<svg xmlns="http://www.w3.org/2000/svg" width="46.001" height="15.178" viewBox="0 0 46.001 15.178">
  <g id="svg_chance_of_rain_mix" transform="translate(-293.389 -557.738)">
    <g id="Group_21" data-name="Group 21" transform="translate(24 1.02)">
      <g id="Group_18" data-name="Group 18" transform="translate(307.243 566.644)">
        <g id="Group_15" data-name="Group 15">
          <path id="Path_21" data-name="Path 21" d="M-1187.184,839.373s1.667,2.522,1.751,3.439a1.57,1.57,0,0,1-1.751,1.813,1.638,1.638,0,0,1-1.751-1.813C-1188.893,842.02-1187.184,839.373-1187.184,839.373Z" transform="translate(1188.938 -839.373)" fill="#42a0f0"/>
        </g>
        <path id="Path_22" data-name="Path 22" d="M219.873,606.739a.806.806,0,0,1,.15.862,1.285,1.285,0,0,1-.765.682c-.111-.028-.111-.62.046-1S219.763,606.711,219.873,606.739Z" transform="translate(-216.883 -603.612)" fill="#fff"/>
      </g>
      <g id="Group_20" data-name="Group 20" transform="translate(310.757 559.718)">
        <g id="Group_15-2" data-name="Group 15">
          <path id="Path_21-2" data-name="Path 21" d="M-1186.626,839.373s2.2,3.325,2.309,4.535a2.07,2.07,0,0,1-2.309,2.391,2.16,2.16,0,0,1-2.309-2.391C-1188.879,842.864-1186.626,839.373-1186.626,839.373Z" transform="translate(1188.938 -839.373)" fill="#42a0f0"/>
        </g>
        <path id="Path_22-2" data-name="Path 22" d="M220.094,606.74a1.062,1.062,0,0,1,.2,1.137,1.693,1.693,0,0,1-1.008.9c-.146-.037-.147-.817.061-1.314S219.948,606.7,220.094,606.74Z" transform="translate(-216.15 -602.617)" fill="#fff"/>
      </g>
      <g id="Group_22" data-name="Group 22" transform="translate(304.927 556.718)">
        <g id="Group_15-3" data-name="Group 15">
          <path id="Path_21-3" data-name="Path 21" d="M-1186.626,839.373s2.2,3.325,2.309,4.535a2.07,2.07,0,0,1-2.309,2.391,2.16,2.16,0,0,1-2.309-2.391C-1188.879,842.864-1186.626,839.373-1186.626,839.373Z" transform="translate(1188.938 -839.373)" fill="#42a0f0"/>
        </g>
        <path id="Path_22-3" data-name="Path 22" d="M220.094,606.74a1.062,1.062,0,0,1,.2,1.137,1.693,1.693,0,0,1-1.008.9c-.146-.037-.147-.817.061-1.314S219.948,606.7,220.094,606.74Z" transform="translate(-216.15 -602.617)" fill="#fff"/>
      </g>
    </g>
    <path id="weather-windy" d="M5.58,20.313a1.282,1.282,0,0,1,.383-.933,1.333,1.333,0,0,1,.949-.366H27.031a1.169,1.169,0,0,1,.9.366,1.349,1.349,0,0,1,.366.949,1.169,1.169,0,0,1-.366.9,1.23,1.23,0,0,1-.9.366H6.912a1.306,1.306,0,0,1-.949-.366A1.184,1.184,0,0,1,5.58,20.313Zm4.014-4.83a1.244,1.244,0,0,1,.383-.916,1.282,1.282,0,0,1,.933-.383H31.045a1.28,1.28,0,0,1,1.266,1.3,1.294,1.294,0,0,1-.366.933,1.235,1.235,0,0,1-.9.383H10.926a1.282,1.282,0,0,1-.933-.383A1.3,1.3,0,0,1,9.594,15.483Zm2.7,9.56a1.19,1.19,0,0,1,.4-.9,1.23,1.23,0,0,1,.9-.366H33.743a1.268,1.268,0,0,1,.933.366,1.169,1.169,0,0,1,.366.9,1.308,1.308,0,0,1-1.316,1.316H13.591a1.31,1.31,0,0,1-.933-.383A1.206,1.206,0,0,1,12.292,25.043Zm17.621-4.73A1.256,1.256,0,0,1,31.228,19h7.528a1.255,1.255,0,0,1,1.316,1.3,1.169,1.169,0,0,1-.366.9,1.337,1.337,0,0,1-.933.366H31.245A1.28,1.28,0,0,1,30.3,21.2,1.071,1.071,0,0,1,29.912,20.313Z" transform="translate(287.809 545.056)" fill="#fff"/>
  </g>
</svg>
