<svg xmlns="http://www.w3.org/2000/svg" width="45.762" height="21.921" viewBox="0 0 45.762 21.921"><g transform="translate(-290.627 -553.738)"><g transform="translate(24 1.02)"><g transform="translate(304.243 565.644)"><path d="M-1187.184,839.373s1.667,2.522,1.751,3.439a1.57,1.57,0,0,1-1.751,1.813,1.638,1.638,0,0,1-1.751-1.813C-1188.893,842.02-1187.184,839.373-1187.184,839.373Z" transform="translate(1188.938 -839.373)" fill="#42a0f0"/><path d="M219.873,606.739a.806.806,0,0,1,.15.862,1.285,1.285,0,0,1-.765.682c-.111-.028-.111-.62.046-1S219.763,606.711,219.873,606.739Z" transform="translate(-216.883 -603.612)" fill="#fff"/></g><g transform="translate(307.757 557.718)"><path d="M-1186.626,839.373s2.2,3.325,2.309,4.535a2.07,2.07,0,0,1-2.309,2.391,2.16,2.16,0,0,1-2.309-2.391C-1188.879,842.864-1186.626,839.373-1186.626,839.373Z" transform="translate(1188.938 -839.373)" fill="#42a0f0"/><path d="M220.094,606.74a1.062,1.062,0,0,1,.2,1.137,1.693,1.693,0,0,1-1.008.9c-.146-.037-.147-.817.061-1.314S219.948,606.7,220.094,606.74Z" transform="translate(-216.15 -602.617)" fill="#fff"/></g><g transform="translate(301.927 552.718)"><path d="M-1186.626,839.373s2.2,3.325,2.309,4.535a2.07,2.07,0,0,1-2.309,2.391,2.16,2.16,0,0,1-2.309-2.391C-1188.879,842.864-1186.626,839.373-1186.626,839.373Z" transform="translate(1188.938 -839.373)" fill="#42a0f0"/><path d="M220.094,606.74a1.062,1.062,0,0,1,.2,1.137,1.693,1.693,0,0,1-1.008.9c-.146-.037-.147-.817.061-1.314S219.948,606.7,220.094,606.74Z" transform="translate(-216.15 -602.617)" fill="#fff"/></g></g><g transform="translate(281.675 527.412)"><path d="M29.5,36.312a10.424,10.424,0,0,1,7.35-2.435c3.144.221,6.155,1.815,9.254,1.461a4.938,4.938,0,0,0,2.48-.886,3.675,3.675,0,0,0,1.461-3.365A3.218,3.218,0,0,0,47.61,28.43a2.857,2.857,0,0,0-3.144,1.638,2.174,2.174,0,0,0,.354,2.3,1.592,1.592,0,0,0,2.214.044" transform="translate(-10.866)" fill="none" stroke="#fff" stroke-linecap="round" stroke-miterlimit="10" stroke-width="1.5"/><path d="M25.9,49.442A23.746,23.746,0,0,1,32.808,45.9" transform="translate(-8.86 -9.765)" fill="none" stroke="#fff" stroke-linecap="round" stroke-miterlimit="10" stroke-width="1.5"/><path d="M36.4,47.309A11.619,11.619,0,0,1,43.706,44.7c4.207,0,8.1,2.3,12.31,2.3a4.6,4.6,0,0,0,3.365-1.151,2.825,2.825,0,0,0,.133-3.675,2.451,2.451,0,0,0-3.587.089,1.665,1.665,0,0,0-.089,2.037,1.161,1.161,0,0,0,1.86-.133" transform="translate(-14.71 -7.278)" fill="none" stroke="#fff" stroke-linecap="round" stroke-miterlimit="10" stroke-width="1.5"/><path d="M10,60.678c1.948,1.417,4.738,1.107,7.04.31a62,62,0,0,0,7.882-3.9,12.848,12.848,0,0,1,3.011-1.284,7.47,7.47,0,0,1,4.3.177,4.72,4.72,0,0,1,1.86,1.151,3.426,3.426,0,0,1,.443,3.852,3.367,3.367,0,0,1-3.542,1.55,2.183,2.183,0,0,1-1.018-.487c-1.018-.974-.664-3.232,1.063-3.1a1.407,1.407,0,0,1,1.151.753" transform="translate(0 -15.156)" fill="none" stroke="#fff" stroke-linecap="round" stroke-miterlimit="10" stroke-width="1.5"/></g></g></svg>