<svg xmlns="http://www.w3.org/2000/svg" width="32.865" height="20" viewBox="0 0 32.865 20"><g transform="translate(0 0.007)"><path d="M7.673,14.271a.778.778,0,1,1,0-1.557H21.412a.686.686,0,0,1,.166.019,4.184,4.184,0,0,1,1.364.436,3.123,3.123,0,0,1,1.142,1.04,3.49,3.49,0,0,1,.15,4.076,3.961,3.961,0,0,1-1.992,1.49,3.742,3.742,0,0,1-2.493.008,3.788,3.788,0,0,1-2.343-3.624.776.776,0,0,1,1.549-.1,2.333,2.333,0,0,0,1.321,2.268,2.224,2.224,0,0,0,1.466-.021,2.4,2.4,0,0,0,1.209-.888,2.024,2.024,0,0,0-.163-2.351,1.6,1.6,0,0,0-.583-.53,2.606,2.606,0,0,0-.837-.265H7.673Zm-3.552-7a.778.778,0,1,1,0-1.557h13.7a2.6,2.6,0,0,0,.84-.265,1.6,1.6,0,0,0,.583-.53A2.029,2.029,0,0,0,19.4,2.57a2.4,2.4,0,0,0-1.209-.888,2.224,2.224,0,0,0-1.466-.021,2.337,2.337,0,0,0-1.321,2.268.776.776,0,0,1-1.549-.1A3.788,3.788,0,0,1,16.2.2a3.776,3.776,0,0,1,2.493.008A3.976,3.976,0,0,1,20.687,1.7a3.49,3.49,0,0,1-.15,4.076A3.123,3.123,0,0,1,19.4,6.815a4.184,4.184,0,0,1-1.364.436.851.851,0,0,1-.166.019H4.121Zm-3.343,3.5a.778.778,0,1,1,0-1.557H29.414a2.564,2.564,0,0,0,.837-.265,1.6,1.6,0,0,0,.583-.53A2.029,2.029,0,0,0,31,6.071a2.4,2.4,0,0,0-1.209-.888,2.224,2.224,0,0,0-1.466-.021A2.337,2.337,0,0,0,27,7.43a.776.776,0,1,1-1.549-.1A3.587,3.587,0,0,1,30.288,3.71,3.976,3.976,0,0,1,32.281,5.2a3.49,3.49,0,0,1-.15,4.076,3.123,3.123,0,0,1-1.142,1.04,4.184,4.184,0,0,1-1.364.436.851.851,0,0,1-.166.019H.778Z" transform="translate(0 0)" fill="#fff"/></g></svg>