<svg xmlns="http://www.w3.org/2000/svg" width="13.953" height="18" viewBox="0 0 13.953 18"><path d="M-30.05-30.1h0a41.874,41.874,0,0,1-3.488-4.077c-1.591-2.13-3.488-5.181-3.488-7.622a5.968,5.968,0,0,1,2.042-4.456A7.327,7.327,0,0,1-30.05-48.1a7.326,7.326,0,0,1,4.934,1.844A5.969,5.969,0,0,1-23.074-41.8c0,2.441-1.9,5.492-3.488,7.622A41.849,41.849,0,0,1-30.049-30.1ZM-30.1-45.209a3.873,3.873,0,0,0-3.869,3.869A3.873,3.873,0,0,0-30.1-37.471a3.873,3.873,0,0,0,3.869-3.869A3.873,3.873,0,0,0-30.1-45.209Z" transform="translate(37.027 48.101)" fill="#fff"/></svg>