<svg xmlns="http://www.w3.org/2000/svg" width="15" height="15" viewBox="0 0 15 15"><g fill="none"><path d="M7.5,0A7.5,7.5,0,1,1,0,7.5,7.5,7.5,0,0,1,7.5,0Z" stroke="none"/><path d="M 7.5 4 C 5.570090293884277 4 4 5.570090293884277 4 7.5 C 4 9.429910659790039 5.570090293884277 11 7.5 11 C 9.429910659790039 11 11 9.429910659790039 11 7.5 C 11 5.570090293884277 9.429910659790039 4 7.5 4 M 7.5 0 C 11.64213943481445 0 15 3.35785961151123 15 7.5 C 15 11.64213943481445 11.64213943481445 15 7.5 15 C 3.35785961151123 15 0 11.64213943481445 0 7.5 C 0 3.35785961151123 3.35785961151123 0 7.5 0 Z" stroke="none" fill="#87b3f5"/></g></svg>